<?xml version="1.0" standalone="no"?><!DOCTYPE svg PUBLIC "-//W3C//DTD SVG 1.1//EN" "http://www.w3.org/Graphics/SVG/1.1/DTD/svg11.dtd"><svg t="1570873816922" class="icon" viewBox="0 0 1024 1024" version="1.1" xmlns="http://www.w3.org/2000/svg" p-id="8515" xmlns:xlink="http://www.w3.org/1999/xlink" width="200" height="200"><defs><style type="text/css"></style></defs><path d="M512.690612 8.996347C234.616536 8.996347 8.386836 235.224375 8.386836 513.303467c0 278.074076 226.2297 504.303776 504.303776 504.303776C790.769704 1017.608915 1016.999404 791.379215 1016.999404 513.303467 1016.999404 235.224375 790.769704 8.996347 512.690612 8.996347z m0 954.087682c-123.535897 0-235.595599-50.081895-316.975752-130.977114a452.387496 452.387496 0 0 1-81.559076-110.476144c-32.712925-62.327294-51.244062-133.191085-51.244062-208.327304 0-248.011562 201.772345-449.783906 449.77889-449.783906 117.636434 0 224.853493 45.404797 305.079838 119.612955 41.613958 38.450186 75.953917 84.65596 100.73066 136.282951 28.184652 58.7321 43.973408 124.505764 43.973408 193.888 0 248.008217-201.772345 449.780562-449.783906 449.780562z m0 0" fill="#e6e6e6" p-id="8516"></path><path d="M402.513788 400.860835c0 30.100974-24.405518 54.508164-54.508164 54.508164-30.114352 0-54.519869-24.405518-54.519869-54.508164 0-30.114352 24.405518-54.524886 54.519869-54.524886 30.100974 0 54.508164 24.410534 54.508164 54.524886z m0 0M739.870112 400.860835c0 30.100974-24.405518 54.508164-54.51987 54.508164-30.117696 0-54.524886-24.405518-54.524886-54.508164 0-30.114352 24.40719-54.524886 54.524886-54.524886 30.114352 0 54.519869 24.410534 54.51987 54.524886z m0 0M511.729106 792.708601c95.816112 0 188.018636-44.516868 247.483152-119.816961 9.698664-12.280515 6.820836-30.229733-6.324198-38.721081l-1.369518-0.884585c-11.573182-7.476332-26.775002-4.675425-35.326548 6.128553-55.168677 69.701623-144.294383 107.404343-233.530453 97.10871-67.820417-7.825819-131.079117-43.582117-173.482345-97.133793-8.54653-10.792272-23.741661-13.57813-35.304809-6.108486l-1.367846 0.882913c-13.131657 8.482987-16.039584 26.425515-6.347608 38.692653 51.322655 64.954294 128.003971 108.332405 210.263692 117.823718a307.2403 307.2403 0 0 0 35.306481 2.028359z m0 0" fill="#e6e6e6" p-id="8517"></path></svg>